<svg width="55" height="19" viewBox="0 0 55 19" fill="none" xmlns="http://www.w3.org/2000/svg">
<path d="M10.1406 10.4419H3.0542V16.2368H11.2861V18H0.897949V1.64844H11.1738V3.42285H3.0542V8.67871H10.1406V10.4419ZM15.5986 5.84863L15.6548 7.19629C16.5457 6.14811 17.7474 5.62402 19.2598 5.62402C20.9593 5.62402 22.116 6.27539 22.73 7.57812C23.1343 6.99414 23.6584 6.52246 24.3022 6.16309C24.9536 5.80371 25.721 5.62402 26.6045 5.62402C29.2699 5.62402 30.625 7.03532 30.6699 9.85791V18H28.5923V9.98145C28.5923 9.11296 28.3939 8.46533 27.9971 8.03857C27.6003 7.60433 26.9339 7.38721 25.998 7.38721C25.2269 7.38721 24.5868 7.6193 24.0776 8.0835C23.5685 8.5402 23.2728 9.15788 23.1904 9.93652V18H21.1016V10.0376C21.1016 8.27067 20.2368 7.38721 18.5073 7.38721C17.1447 7.38721 16.2126 7.96745 15.7109 9.12793V18H13.6333V5.84863H15.5986ZM41.3164 18C41.1966 17.7604 41.0993 17.3337 41.0244 16.7197C40.0586 17.723 38.9056 18.2246 37.5654 18.2246C36.3675 18.2246 35.383 17.8877 34.6118 17.2139C33.8481 16.5326 33.4663 15.6715 33.4663 14.6309C33.4663 13.3656 33.9455 12.3848 34.9038 11.6885C35.8696 10.9847 37.2248 10.6328 38.9692 10.6328H40.9907V9.67822C40.9907 8.95199 40.7736 8.37549 40.3394 7.94873C39.9051 7.51449 39.265 7.29736 38.4189 7.29736C37.6777 7.29736 37.0563 7.48454 36.5547 7.85889C36.0531 8.23324 35.8022 8.6862 35.8022 9.21777H33.7134C33.7134 8.61133 33.9268 8.02734 34.3535 7.46582C34.7878 6.89681 35.3717 6.44759 36.1055 6.11816C36.8467 5.78874 37.659 5.62402 38.5425 5.62402C39.9425 5.62402 41.0394 5.97591 41.833 6.67969C42.6266 7.37598 43.0384 8.33805 43.0684 9.56592V15.1587C43.0684 16.2743 43.2106 17.1615 43.4951 17.8203V18H41.3164ZM37.8687 16.4165C38.52 16.4165 39.1377 16.248 39.7217 15.9111C40.3057 15.5742 40.7287 15.1362 40.9907 14.5972V12.104H39.3623C36.8167 12.104 35.5439 12.849 35.5439 14.3389C35.5439 14.9902 35.7611 15.4993 36.1953 15.8662C36.6296 16.2331 37.1873 16.4165 37.8687 16.4165ZM48.5825 18H46.5049V5.84863H48.5825V18ZM46.3364 2.62549C46.3364 2.28857 46.4375 2.00407 46.6396 1.77197C46.8493 1.53988 47.1562 1.42383 47.5605 1.42383C47.9648 1.42383 48.2718 1.53988 48.4814 1.77197C48.6911 2.00407 48.7959 2.28857 48.7959 2.62549C48.7959 2.9624 48.6911 3.24316 48.4814 3.46777C48.2718 3.69238 47.9648 3.80469 47.5605 3.80469C47.1562 3.80469 46.8493 3.69238 46.6396 3.46777C46.4375 3.24316 46.3364 2.9624 46.3364 2.62549ZM54.1753 18H52.0977V0.75H54.1753V18Z" fill="#666666"/>
</svg>
