<svg width="185" height="53" viewBox="0 0 185 53" fill="none" xmlns="http://www.w3.org/2000/svg">
<rect width="185" height="53" rx="3" fill="url(#paint0_linear)"/>
<path d="M81.2139 27.9023H76.2393V33H73.1543V20.2031H81.7148V22.585H76.2393V25.5293H81.2139V27.9023ZM90.9346 27.5771H86.083V30.627H91.8135V33H82.998V20.2031H91.8311V22.585H86.083V25.2832H90.9346V27.5771ZM101.007 27.5771H96.1553V30.627H101.886V33H93.0703V20.2031H101.903V22.585H96.1553V25.2832H101.007V27.5771ZM103.143 33V20.2031H107.265C108.396 20.2031 109.412 20.4609 110.314 20.9766C111.217 21.4863 111.92 22.21 112.424 23.1475C112.934 24.0791 113.191 25.125 113.197 26.2852V26.874C113.197 28.0459 112.948 29.0977 112.45 30.0293C111.958 30.9551 111.261 31.6816 110.358 32.209C109.462 32.7305 108.46 32.9941 107.353 33H103.143ZM106.228 22.585V30.627H107.3C108.185 30.627 108.864 30.3135 109.339 29.6865C109.813 29.0537 110.051 28.1162 110.051 26.874V26.3203C110.051 25.084 109.813 24.1523 109.339 23.5254C108.864 22.8984 108.173 22.585 107.265 22.585H106.228Z" fill="white"/>
<defs>
<linearGradient id="paint0_linear" x1="-34.543" y1="-2.78636e-07" x2="96.1058" y2="138.434" gradientUnits="userSpaceOnUse">
<stop stop-color="#4BD8B5"/>
<stop offset="1" stop-color="#49D6DF"/>
</linearGradient>
</defs>
</svg>
