<svg width="67" height="94" viewBox="0 0 67 94" fill="none" xmlns="http://www.w3.org/2000/svg">
<path d="M33.0663 0C14.8332 0 0 14.8349 0 33.0702C0 50.7103 30.2303 90.9005 31.5181 92.6046C31.8799 93.091 32.4596 93.375 33.0665 93.375C33.6733 93.375 34.253 93.091 34.6148 92.6046C35.9024 90.9005 66.1329 50.7104 66.1329 33.0702C66.1325 14.8349 51.2994 0 33.0663 0ZM33.0663 50.578C23.4148 50.578 15.5606 42.7229 15.5606 33.0702C15.5606 23.4176 23.4148 15.5624 33.0663 15.5624C42.7177 15.5624 50.572 23.4176 50.572 33.0702C50.572 42.7229 42.7177 50.578 33.0663 50.578Z" fill="#C4C4C4"/>
</svg>
